<svg width="280" height="48" viewBox="0 0 280 48" fill="none" xmlns="http://www.w3.org/2000/svg">
<path fill-rule="evenodd" clip-rule="evenodd" d="M214.427 7.08875C214.427 5.55602 215.766 4.31348 217.416 4.31348C219.068 4.31348 220.407 5.55602 220.407 7.08875C220.407 8.62105 219.068 9.86406 217.416 9.86406C215.766 9.86406 214.427 8.62105 214.427 7.08875ZM219.977 33.1428C219.98 33.9705 220.7 34.6388 221.587 34.6446C223.15 34.6446 224.503 33.6466 225.427 32.2698L225.956 32.545C224.818 34.2072 223.49 35.157 221.585 35.157C217.959 35.157 214.891 32.8064 214.892 29.5909L214.894 14.6644H211.962V14.1467H219.977V33.1428ZM236.598 34.1548H239.534V34.6614H228.568V34.1548H231.506V14.6817H228.568V14.1649H236.598L236.575 17.5354C237.732 15.1848 239.939 13.7988 242.723 13.6609C246.896 13.4562 250.686 15.1752 251.891 18.5191C252.878 15.574 255.29 13.8163 258.442 13.6609C263.506 13.4124 268.007 15.9973 268.007 20.8782C268.001 28.9736 268.026 32.8161 268.026 34.1447H270.964V34.6614H260.001V34.1447H262.933L262.909 19.5637C262.909 16.6034 261.689 14.1631 258.442 14.1631C255.243 14.1631 252.295 16.9363 252.295 20.2392L252.306 34.1447H255.245V34.6614H244.282V34.1447H247.214L247.19 19.5637C247.19 16.6034 245.977 14.1631 242.728 14.1631C239.531 14.1631 236.575 16.9372 236.575 20.2357L236.598 34.1548ZM196.723 34.1541H199.652L199.655 5.55073H196.723V5.03441H204.738V34.1541H207.668V34.6593H196.723V34.1541ZM166.827 42.7326C166.402 43.0745 166.539 43.743 167.778 43.743C170.056 43.743 171.368 41.3569 171.878 40.3229L174.556 34.7957L164.561 14.6785H161.231V14.1615H174.21V14.6785H170.119L177.305 29.1388L184.33 14.6785H180.23V14.1615H187.906V14.6785H185.017L177.791 29.5457L172.39 40.6794C171.299 42.9308 169.817 44.5613 167.051 44.5613C163.896 44.5613 162.335 42.9361 162.335 40.8411C162.335 39.4527 163.546 38.3214 165.045 38.3214C166.544 38.3214 167.759 39.4495 167.759 40.8411C167.759 41.6301 167.377 42.2882 166.827 42.7326ZM150.642 34.1604H153.573L153.572 19.5265C153.572 16.5662 151.982 14.1813 148.733 14.1813C145.373 14.1813 142.028 17.2392 142.029 20.4434L142.023 34.1733H144.959V34.6773H133.999V34.1733H136.931V14.6983H133.999V14.1813H142.023L142.028 17.8992C143.095 15.598 145.608 13.7543 148.706 13.6609C153.777 13.5077 158.67 15.87 158.67 20.7278C158.665 28.8232 158.665 32.8322 158.665 34.1604H161.603V34.6773H150.642V34.1604ZM117.876 35.1752C111.47 35.1752 106.278 30.3555 106.278 24.4108C106.278 18.4651 111.47 13.6449 117.876 13.6449C124.281 13.6449 129.474 18.4651 129.474 24.4108C129.474 30.3555 124.281 35.1752 117.876 35.1752ZM117.873 34.6621C121.058 34.6621 123.645 32.2843 123.645 29.3268L123.643 19.516C123.643 16.5589 121.06 14.1615 117.873 14.1615C114.688 14.1615 112.111 16.5596 112.111 19.516L112.104 29.3268C112.104 32.2843 114.686 34.6621 117.873 34.6621ZM50.7664 33.163C50.7692 33.9913 51.4904 34.6593 52.3762 34.6653C53.9406 34.6653 55.2941 33.6676 56.2178 32.2896L56.7454 32.5655C55.607 34.2277 54.2815 35.1775 52.3757 35.1775C49.1285 35.1655 46.1592 33.2159 45.7364 30.3617L45.6835 30.2736C45.2785 32.9725 42.187 35.1826 38.6209 35.1826C32.2206 35.1826 27.777 30.3437 27.777 24.4014C27.777 18.4607 32.2187 13.6449 38.619 13.6449C42.1674 13.6449 45.1597 15.8763 45.6835 18.4323V14.6854H50.7664V33.163ZM38.6261 34.6653C41.8101 34.6653 45.1326 32.2698 45.1326 29.3155L45.127 19.512C45.127 16.5566 41.8101 14.1615 38.6261 14.1615C35.4434 14.1615 33.604 16.5566 33.604 19.512L33.6017 29.3155C33.6017 32.2702 35.4434 34.6653 38.6261 34.6653ZM21.7658 14.9442C21.7658 14.5631 21.5675 14.1615 20.1756 14.1615C17.4443 14.1615 13.9394 17.8238 13.9394 22.9596V34.1546H16.8681V34.6593H5.93164V34.1546H8.8603V14.6792H5.93164V14.1631L13.9394 14.1603V19.0294C14.9796 15.9304 17.6258 13.6449 20.2832 13.6449C22.6881 13.6449 25.6729 15.1246 25.6729 17.7315C25.6729 19.1501 24.4344 20.3003 22.9056 20.3003C21.3776 20.3003 20.1387 19.1501 20.1387 17.7315C20.1387 15.8959 21.7658 15.7265 21.7658 14.9442ZM67.3872 34.1647H70.3257V34.6711H59.3569V34.1647H62.295V14.6907H59.3569V14.1739H67.3872L67.3647 17.544C68.5232 15.1943 70.7298 13.8071 73.5116 13.6703C77.6853 13.4654 81.4768 15.1848 82.6807 18.5272C83.6675 15.5828 86.0798 13.8258 89.2312 13.6703C94.2972 13.4209 98.7964 16.0068 98.7964 20.8868C98.7926 28.9833 98.8151 32.8251 98.8151 34.1536H101.753V34.6711H90.7918V34.1536H93.7229L93.699 19.5729C93.699 16.6124 92.4807 14.1728 89.2325 14.1728C86.0335 14.1728 83.0843 16.9453 83.0843 20.2487L83.0955 34.1536H86.0335V34.6711H75.0723V34.1536H78.0037L77.9795 19.5729C77.9795 16.6124 76.7663 14.1728 73.5181 14.1728C70.3205 14.1728 67.3647 16.9453 67.3647 20.2447L67.3872 34.1647Z" fill="white"/>
<path fill-rule="evenodd" clip-rule="evenodd" d="M199.385 43.0587H200.211C200.867 43.0587 201.293 42.9352 201.693 42.6255C202.155 42.2697 202.404 41.7684 202.404 41.1873C202.404 40.5898 202.161 40.0818 201.706 39.7325C201.317 39.428 200.873 39.2983 200.217 39.2983H199.385V43.0587ZM199.841 42.67V39.6875H200.235C201.274 39.6875 201.948 40.2737 201.948 41.1811C201.948 42.0782 201.268 42.67 200.235 42.67H199.841Z" fill="white"/>
<path fill-rule="evenodd" clip-rule="evenodd" d="M206.413 39.6875V39.2983H204.317V43.0587H206.413V42.67H204.771V41.1981H206.369V40.8099H204.771V39.6875H206.413Z" fill="white"/>
<path fill-rule="evenodd" clip-rule="evenodd" d="M210.492 39.8228C210.251 39.4336 209.904 39.2366 209.449 39.2366C208.804 39.2366 208.313 39.6528 208.313 40.2002C208.313 40.6231 208.55 40.8884 209.133 41.1311L209.254 41.1812L209.376 41.2324L209.497 41.2889C209.631 41.3399 209.746 41.3952 209.849 41.4577C210.075 41.5867 210.184 41.7625 210.184 41.9932C210.184 42.411 209.824 42.7316 209.357 42.7316C208.932 42.7316 208.653 42.4954 208.543 42.0439L208.106 42.1565C208.264 42.7773 208.713 43.1268 209.364 43.1268C210.08 43.1268 210.639 42.6133 210.639 41.9655C210.639 41.4977 210.372 41.1982 209.721 40.9333L209.594 40.8826L209.467 40.8319L209.339 40.7756C209.224 40.7301 209.12 40.6738 209.023 40.6184C208.853 40.51 208.768 40.3753 208.768 40.2126C208.768 39.8798 209.06 39.6313 209.436 39.6313C209.752 39.6313 209.928 39.7326 210.135 40.0369L210.492 39.8228Z" fill="white"/>
<path d="M213.014 39.2983H212.558V43.0582H213.014V39.2983Z" fill="white"/>
<path fill-rule="evenodd" clip-rule="evenodd" d="M217.235 41.171V41.5595H218.438C218.42 41.7906 218.377 41.9373 218.274 42.0894C218.03 42.4673 217.516 42.7316 217.029 42.7316C216.129 42.7316 215.382 42.0384 215.382 41.1931C215.382 40.3183 216.123 39.6313 217.066 39.6313C217.599 39.6313 218.019 39.8509 218.414 40.3363L218.747 40.0542C218.232 39.4843 217.727 39.2366 217.066 39.2366C215.875 39.2366 214.927 40.0994 214.927 41.1873C214.927 42.2472 215.869 43.1268 217.004 43.1268C217.606 43.1268 218.183 42.8733 218.547 42.4495C218.82 42.1346 218.924 41.8017 218.924 41.2662V41.171H217.235Z" fill="white"/>
<path fill-rule="evenodd" clip-rule="evenodd" d="M220.843 43.0588H221.298V40.1608L224.451 43.2284V39.2985H223.996V42.2131L220.843 39.1414V43.0588Z" fill="white"/>
<path fill-rule="evenodd" clip-rule="evenodd" d="M230.659 40.9161C231.23 40.516 231.375 40.3246 231.375 39.9806C231.375 39.5632 230.999 39.2366 230.512 39.2366C230.002 39.2366 229.626 39.5746 229.626 40.0314C229.626 40.2682 229.717 40.4487 230.033 40.8372C229.753 41.0067 229.657 41.069 229.553 41.1421C229.176 41.4178 228.988 41.7228 228.988 42.067C228.988 42.6758 229.499 43.1323 230.173 43.1323C230.58 43.1323 230.974 42.9517 231.46 42.5349L231.904 43.0588H232.468L231.776 42.2417C231.977 42.0552 232.14 41.8751 232.292 41.6836L231.971 41.43C231.806 41.6215 231.661 41.7791 231.509 41.9256L230.659 40.9161ZM231.193 42.2241C230.762 42.5909 230.446 42.7494 230.154 42.7494C229.771 42.7494 229.431 42.4336 229.431 42.0726C229.431 41.7849 229.596 41.5814 230.075 41.2835C230.288 41.1479 230.221 41.1931 230.294 41.1421L231.193 42.2241ZM230.391 40.5954L230.379 40.5831C230.373 40.5728 230.367 40.5728 230.367 40.5728C230.081 40.2125 230.057 40.167 230.057 40.008C230.057 39.7783 230.252 39.5974 230.501 39.5974C230.756 39.5974 230.944 39.7607 230.944 39.9806C230.944 40.2125 230.883 40.2791 230.398 40.6123L230.391 40.5954Z" fill="white"/>
<path fill-rule="evenodd" clip-rule="evenodd" d="M237.205 39.2983H236.75V43.0587H238.317V42.67H237.205V39.2983Z" fill="white"/>
<path d="M240.466 39.2983H240.01V43.0582H240.466V39.2983Z" fill="white"/>
<path fill-rule="evenodd" clip-rule="evenodd" d="M244.444 39.6875V39.2983H242.603V43.0587H243.059V41.1981H244.401V40.8099H243.059V39.6875H244.444Z" fill="white"/>
<path fill-rule="evenodd" clip-rule="evenodd" d="M248.416 39.6875V39.2983H246.321V43.0587H248.416V42.67H246.776V41.1981H248.374V40.8099H246.776V39.6875H248.416Z" fill="white"/>
<path fill-rule="evenodd" clip-rule="evenodd" d="M252.497 39.8228C252.254 39.4336 251.908 39.2366 251.453 39.2366C250.809 39.2366 250.317 39.6528 250.317 40.2002C250.317 40.6231 250.554 40.8884 251.136 41.1311L251.258 41.1812L251.38 41.2324L251.501 41.2889C251.635 41.3399 251.751 41.3952 251.854 41.4577C252.079 41.5867 252.188 41.7625 252.188 41.9932C252.188 42.411 251.829 42.7316 251.361 42.7316C250.936 42.7316 250.657 42.4954 250.548 42.0439L250.11 42.1565C250.268 42.7773 250.718 43.1268 251.367 43.1268C252.085 43.1268 252.643 42.6133 252.643 41.9655C252.643 41.4977 252.376 41.1982 251.726 40.9333L251.598 40.8826L251.471 40.8319L251.344 40.7756C251.228 40.7301 251.125 40.6738 251.027 40.6184C250.857 40.51 250.772 40.3753 250.772 40.2126C250.772 39.8798 251.064 39.6313 251.44 39.6313C251.756 39.6313 251.932 39.7326 252.139 40.0369L252.497 39.8228Z" fill="white"/>
<path fill-rule="evenodd" clip-rule="evenodd" d="M255.578 39.6875H256.562V39.2983H254.144V39.6875H255.122V43.0587H255.578V39.6875Z" fill="white"/>
<path fill-rule="evenodd" clip-rule="evenodd" d="M259.342 41.4408V43.0587H259.799V41.4408L261.147 39.2983H260.619L259.574 40.9785L258.541 39.2983H258.018L259.342 41.4408Z" fill="white"/>
<path fill-rule="evenodd" clip-rule="evenodd" d="M263.254 39.2983H262.797V43.0587H264.365V42.67H263.254V39.2983Z" fill="white"/>
<path fill-rule="evenodd" clip-rule="evenodd" d="M268.155 39.6875V39.2983H266.059V43.0587H268.155V42.67H266.515V41.1981H268.112V40.8099H266.515V39.6875H268.155Z" fill="white"/>
</svg>
